HIERARCHY
ROOT Hips
{
	OFFSET 0.000000 71.427986 0.000000
	CHANNELS 6 Xposition Yposition Zposition Xrotation Yrotation Zrotation
	JOINT Pelvis
	{
		OFFSET 0.000000 0.000000 0.000000
		CHANNELS 3 Xrotation Yrotation Zrotation
		JOINT LeftUpLeg
		{
			OFFSET 6.797100 -2.508499 -1.318700
			CHANNELS 3 Xrotation Yrotation Zrotation
			JOINT LeftLeg
			{
				OFFSET 0.069008 -29.241863 0.690200
				CHANNELS 3 Xrotation Yrotation Zrotation
				JOINT LeftFoot
				{
					OFFSET -0.069008 -29.568123 -0.266800
					CHANNELS 3 Xrotation Yrotation Zrotation
					JOINT LeftToeBase
					{
						OFFSET 3.145500 -8.631000 16.059900
						CHANNELS 3 Xrotation Yrotation Zrotation
						End Site
						{
							OFFSET 0.000000 18.501587 0.000000
						}
					}
				}
			}
			JOINT Left_ShortSleeve
			{
				OFFSET 0.265923 -10.480953 1.153800
				CHANNELS 3 Xrotation Yrotation Zrotation
				End Site
				{
					OFFSET 1.725763 19.823879 0.000000
				}
			}
		}
		JOINT RightUpLeg
		{
			OFFSET -6.797100 -2.508499 -1.318700
			CHANNELS 3 Xrotation Yrotation Zrotation
			JOINT RightLeg
			{
				OFFSET -0.082453 -29.241932 0.688000
				CHANNELS 3 Xrotation Yrotation Zrotation
				JOINT RightFoot
				{
					OFFSET 0.082453 -29.568058 -0.264600
					CHANNELS 3 Xrotation Yrotation Zrotation
					JOINT RightToeBase
					{
						OFFSET -3.115300 -8.682800 16.113400
						CHANNELS 3 Xrotation Yrotation Zrotation
						End Site
						{
							OFFSET 0.000000 18.567114 0.000000
						}
					}
				}
			}
			JOINT Right_ShortSleeve
			{
				OFFSET -0.265923 -10.480953 1.153800
				CHANNELS 3 Xrotation Yrotation Zrotation
				End Site
				{
					OFFSET -1.725766 19.823910 0.000000
				}
			}
		}
	}
	JOINT Spine
	{
		OFFSET 0.000000 13.368103 0.470500
		CHANNELS 3 Xrotation Yrotation Zrotation
		JOINT Spine1
		{
			OFFSET 0.147000 13.837402 0.538800
			CHANNELS 3 Xrotation Yrotation Zrotation
			JOINT Spine2
			{
				OFFSET 0.168000 16.242897 -1.435500
				CHANNELS 3 Xrotation Yrotation Zrotation
				JOINT Neck
				{
					OFFSET 0.217200 18.631500 -1.679100
					CHANNELS 3 Xrotation Yrotation Zrotation
					JOINT Head
					{
						OFFSET 0.000000 6.599396 1.385900
						CHANNELS 3 Xrotation Yrotation Zrotation
						JOINT Hat
						{
							OFFSET -0.532200 27.220596 -10.096100
							CHANNELS 3 Xrotation Yrotation Zrotation
							End Site
							{
								OFFSET 0.000000 22.029861 0.000000
							}
						}
						JOINT HairD
						{
							OFFSET -10.777400 17.437393 -1.325900
							CHANNELS 3 Xrotation Yrotation Zrotation
							JOINT HairD1
							{
								OFFSET -3.290299 -11.051193 1.062200
								CHANNELS 3 Xrotation Yrotation Zrotation
								End Site
								{
									OFFSET 0.000000 11.579437 0.000000
								}
							}
						}
						JOINT HairB
						{
							OFFSET -10.777400 17.437393 1.467900
							CHANNELS 3 Xrotation Yrotation Zrotation
							JOINT HairB1
							{
								OFFSET -1.561200 -12.956299 3.590200
								CHANNELS 3 Xrotation Yrotation Zrotation
								End Site
								{
									OFFSET 0.000000 13.534866 0.000000
								}
							}
						}
						JOINT HairA
						{
							OFFSET 9.713100 17.437393 1.467900
							CHANNELS 3 Xrotation Yrotation Zrotation
							JOINT HairA1
							{
								OFFSET 1.561200 -12.956299 3.590200
								CHANNELS 3 Xrotation Yrotation Zrotation
								End Site
								{
									OFFSET 0.000000 13.534866 0.000000
								}
							}
						}
						JOINT HairC
						{
							OFFSET 9.713100 17.437393 -1.325900
							CHANNELS 3 Xrotation Yrotation Zrotation
							JOINT HairC1
							{
								OFFSET 3.290300 -11.051193 1.062200
								CHANNELS 3 Xrotation Yrotation Zrotation
								End Site
								{
									OFFSET 0.000000 11.579437 0.000000
								}
							}
						}
					}
				}
				JOINT LeftShoulder
				{
					OFFSET 5.101800 15.108002 -2.763700
					CHANNELS 3 Xrotation Yrotation Zrotation
					JOINT LeftArm
					{
						OFFSET 9.825497 2.506317 -1.597400
						CHANNELS 3 Xrotation Yrotation Zrotation
						JOINT LeftForeArm
						{
							OFFSET 21.966244 0.000000 0.000000
							CHANNELS 3 Xrotation Yrotation Zrotation
							JOINT LeftHand
							{
								OFFSET 33.879036 0.000000 0.000000
								CHANNELS 3 Xrotation Yrotation Zrotation
								JOINT LeftHandThumb1
								{
									OFFSET 6.715286 -2.359680 3.363841
									CHANNELS 3 Xrotation Yrotation Zrotation
									JOINT LeftHandThumb2
									{
										OFFSET 2.507072 -1.447464 1.447461
										CHANNELS 3 Xrotation Yrotation Zrotation
										JOINT LeftHandThumb3
										{
											OFFSET 2.898338 -1.673355 1.673357
											CHANNELS 3 Xrotation Yrotation Zrotation
											End Site
											{
												OFFSET -0.295959 3.727692 -0.131651
											}
										}
									}
								}
								JOINT LeftHandIndex1
								{
									OFFSET 14.190811 -0.254547 3.840278
									CHANNELS 3 Xrotation Yrotation Zrotation
									JOINT LeftHandIndex2
									{
										OFFSET 3.551727 0.000000 -0.000000
										CHANNELS 3 Xrotation Yrotation Zrotation
										JOINT LeftHandIndex3
										{
											OFFSET 2.894196 0.000000 0.000000
											CHANNELS 3 Xrotation Yrotation Zrotation
											End Site
											{
												OFFSET -1.000603 2.690872 0.366626
											}
										}
									}
								}
								JOINT LeftHandMiddle1
								{
									OFFSET 13.776489 0.000000 0.000000
									CHANNELS 3 Xrotation Yrotation Zrotation
									JOINT LeftHandMiddle2
									{
										OFFSET 3.438232 0.000000 0.000000
										CHANNELS 3 Xrotation Yrotation Zrotation
										JOINT LeftHandMiddle3
										{
											OFFSET 3.691551 0.000000 0.000000
											CHANNELS 3 Xrotation Yrotation Zrotation
											End Site
											{
												OFFSET -1.082298 3.499527 0.457670
											}
										}
									}
								}
								JOINT LeftHandRing1
								{
									OFFSET 13.966164 -0.268127 -3.067488
									CHANNELS 3 Xrotation Yrotation Zrotation
									JOINT LeftHandRing2
									{
										OFFSET 3.162567 0.000000 0.000000
										CHANNELS 3 Xrotation Yrotation Zrotation
										JOINT LeftHandRing3
										{
											OFFSET 3.324348 0.000000 0.000000
											CHANNELS 3 Xrotation Yrotation Zrotation
											End Site
											{
												OFFSET -0.861900 3.184998 0.405154
											}
										}
									}
								}
								JOINT LeftHandPinky1
								{
									OFFSET 13.131393 -0.168503 -5.746925
									CHANNELS 3 Xrotation Yrotation Zrotation
									JOINT LeftHandPinky2
									{
										OFFSET 2.849182 0.000000 0.000000
										CHANNELS 3 Xrotation Yrotation Zrotation
										JOINT LeftHandPinky3
										{
											OFFSET 2.805038 0.000000 0.000000
											CHANNELS 3 Xrotation Yrotation Zrotation
											End Site
											{
												OFFSET -0.882500 2.642609 0.325652
											}
										}
									}
								}
							}
							JOINT Left_Sleeve
							{
								OFFSET 6.592125 -0.646545 0.805568
								CHANNELS 3 Xrotation Yrotation Zrotation
								End Site
								{
									OFFSET -0.000179 20.275787 -0.000000
								}
							}
						}
					}
				}
				JOINT RightShoulder
				{
					OFFSET -5.731700 15.108002 -2.763700
					CHANNELS 3 Xrotation Yrotation Zrotation
					JOINT RightArm
					{
						OFFSET -9.825497 2.506317 -1.597400
						CHANNELS 3 Xrotation Yrotation Zrotation
						JOINT RightForeArm
						{
							OFFSET -21.966242 0.000000 0.000000
							CHANNELS 3 Xrotation Yrotation Zrotation
							JOINT RightHand
							{
								OFFSET -33.879032 0.000000 0.000000
								CHANNELS 3 Xrotation Yrotation Zrotation
								JOINT RightHandThumb1
								{
									OFFSET -6.715286 -2.359680 3.363841
									CHANNELS 3 Xrotation Yrotation Zrotation
									JOINT RightHandThumb2
									{
										OFFSET -2.507072 -1.447464 1.447461
										CHANNELS 3 Xrotation Yrotation Zrotation
										JOINT RightHandThumb3
										{
											OFFSET -2.898338 -1.673355 1.673357
											CHANNELS 3 Xrotation Yrotation Zrotation
											End Site
											{
												OFFSET 0.295959 3.727692 -0.131651
											}
										}
									}
								}
								JOINT RightHandIndex1
								{
									OFFSET -14.190811 -0.254547 3.840278
									CHANNELS 3 Xrotation Yrotation Zrotation
									JOINT RightHandIndex2
									{
										OFFSET -3.551727 0.000000 -0.000000
										CHANNELS 3 Xrotation Yrotation Zrotation
										JOINT RightHandIndex3
										{
											OFFSET -2.894196 0.000000 0.000000
											CHANNELS 3 Xrotation Yrotation Zrotation
											End Site
											{
												OFFSET 1.000603 2.690872 0.366626
											}
										}
									}
								}
								JOINT RightHandMiddle1
								{
									OFFSET -13.776489 0.000000 0.000000
									CHANNELS 3 Xrotation Yrotation Zrotation
									JOINT RightHandMiddle2
									{
										OFFSET -3.438232 0.000000 0.000000
										CHANNELS 3 Xrotation Yrotation Zrotation
										JOINT RightHandMiddle3
										{
											OFFSET -3.691551 0.000000 0.000000
											CHANNELS 3 Xrotation Yrotation Zrotation
											End Site
											{
												OFFSET 1.082298 3.499527 0.457670
											}
										}
									}
								}
								JOINT RightHandRing1
								{
									OFFSET -13.966164 -0.268127 -3.067488
									CHANNELS 3 Xrotation Yrotation Zrotation
									JOINT RightHandRing2
									{
										OFFSET -3.162567 0.000000 0.000000
										CHANNELS 3 Xrotation Yrotation Zrotation
										JOINT RightHandRing3
										{
											OFFSET -3.324348 0.000000 0.000000
											CHANNELS 3 Xrotation Yrotation Zrotation
											End Site
											{
												OFFSET 0.861900 3.184998 0.405154
											}
										}
									}
								}
								JOINT RightHandPinky1
								{
									OFFSET -13.131393 -0.168503 -5.746925
									CHANNELS 3 Xrotation Yrotation Zrotation
									JOINT RightHandPinky2
									{
										OFFSET -2.849182 0.000000 0.000000
										CHANNELS 3 Xrotation Yrotation Zrotation
										JOINT RightHandPinky3
										{
											OFFSET -2.805038 0.000000 0.000000
											CHANNELS 3 Xrotation Yrotation Zrotation
											End Site
											{
												OFFSET 0.882500 2.642609 0.325652
											}
										}
									}
								}
							}
							JOINT Right_Sleeve
							{
								OFFSET -6.592125 -0.646545 0.805568
								CHANNELS 3 Xrotation Yrotation Zrotation
								End Site
								{
									OFFSET 0.000179 20.275787 -0.000000
								}
							}
						}
					}
				}
				JOINT Bind_Right_JacketString
				{
					OFFSET -3.534800 11.969597 7.200700
					CHANNELS 3 Xrotation Yrotation Zrotation
					JOINT Bind_Right_JacketString1
					{
						OFFSET -0.319900 -6.102600 2.794100
						CHANNELS 3 Xrotation Yrotation Zrotation
						End Site
						{
							OFFSET 0.000000 6.719452 0.000000
						}
					}
				}
				JOINT Bind_Left_JacketString
				{
					OFFSET 2.904800 11.969597 7.200700
					CHANNELS 3 Xrotation Yrotation Zrotation
					JOINT Bind_Left_JacketString1
					{
						OFFSET 0.364800 -5.904503 3.186800
						CHANNELS 3 Xrotation Yrotation Zrotation
						End Site
						{
							OFFSET 0.000000 6.719513 0.000000
						}
					}
				}
				JOINT HairE
				{
					OFFSET 5.915200 17.612701 -11.592200
					CHANNELS 3 Xrotation Yrotation Zrotation
					JOINT HairE1
					{
						OFFSET 0.289200 -7.171898 -1.284500
						CHANNELS 3 Xrotation Yrotation Zrotation
						End Site
						{
							OFFSET 0.000000 7.291756 0.000000
						}
					}
				}
				JOINT HairF
				{
					OFFSET -0.864800 17.612701 -11.592200
					CHANNELS 3 Xrotation Yrotation Zrotation
					JOINT HairF1
					{
						OFFSET 0.000000 -14.087097 -2.127501
						CHANNELS 3 Xrotation Yrotation Zrotation
						End Site
						{
							OFFSET 0.000000 14.246841 0.000000
						}
					}
				}
				JOINT HairG
				{
					OFFSET -8.087700 17.612701 -11.592200
					CHANNELS 3 Xrotation Yrotation Zrotation
					JOINT HairG1
					{
						OFFSET -0.293600 -6.081398 -0.910100
						CHANNELS 3 Xrotation Yrotation Zrotation
						End Site
						{
							OFFSET 0.000000 6.156120 0.000000
						}
					}
				}
			}
		}
	}
	JOINT Pouch
	{
		OFFSET 0.000000 4.394501 10.847300
		CHANNELS 3 Xrotation Yrotation Zrotation
		End Site
		{
			OFFSET 0.000000 21.880577 0.000000
		}
	}
	JOINT Bag
	{
		OFFSET -13.229000 4.813004 -0.593300
		CHANNELS 3 Xrotation Yrotation Zrotation
		End Site
		{
			OFFSET 0.000000 21.880577 0.000000
		}
	}
	JOINT OccupyGuyFacialAnim_Joint
	{
		OFFSET 1.000000 -70.206398 -1.655000
		CHANNELS 3 Xrotation Yrotation Zrotation
		End Site
		{
			OFFSET 0.000000 21.880577 0.000000
		}
	}
}
MOTION
Frames: 4
Frame Time: 0.016667
42.483627 58.184410 -20.528744 17.228355 -3.670112 713.671167 0.000001 -0.000000 -0.000000 -71.333130 0.621985 21.940980 69.184782 7.403257 -6.358503 -14.510243 6.459793 -1.231110 -0.000000 0.000002 -0.000000 0.000002 0.000000 -0.000000 -6.707795 -11.229156 -4.442472 53.236065 -17.232547 -8.454737 -16.373891 -22.072584 12.084304 -0.000000 0.000001 -0.000001 -0.000000 0.000001 0.000000 37.340617 -2.729468 -7.675146 3.324697 -0.005387 1.710505 3.320227 0.069687 1.714682 -10.701417 -0.212996 -2.074794 -25.893817 -3.052779 -3.080078 -0.000000 -0.000000 -0.000000 -0.000000 -0.000000 -0.000000 -0.000000 -0.000000 -0.000000 -0.000000 -0.000000 -0.000000 -0.000000 -0.000001 -0.000000 -0.000000 -0.000000 -0.000000 -0.000000 -0.000001 -0.000000 -0.000000 -0.000000 -0.000000 -0.000000 -0.000000 -0.000000 -0.036534 1.382370 3.025445 -21.303532 22.272369 -26.305085 0.000034 -81.466726 0.000023 21.775893 22.164278 25.734519 3.362042 12.388437 8.079689 1.012534 0.452037 -1.079076 -0.000002 0.000001 -0.000001 5.064587 -21.352676 12.934725 2.609070 5.399427 -51.555385 -0.000001 0.000000 0.000003 1.066107 -16.631085 2.806716 1.129303 3.783486 -33.228495 0.000002 -0.000003 -0.000002 -1.597789 -11.079084 -8.654905 0.192402 1.619531 -13.549491 0.000001 0.000001 -0.000001 -0.084878 0.765992 -17.087378 -0.017964 -4.042631 -0.607461 0.000002 0.000002 -0.000001 -0.000002 0.000000 -0.000002 0.009036 -1.155008 -3.674748 151.437588 190.135227 -164.585689 0.000007 51.388007 0.000000 -20.829647 10.502358 -15.904649 -12.864450 13.318256 -9.916071 16.682904 -44.602173 -3.768040 0.000000 0.000000 0.000002 2.738903 8.449596 -20.575393 4.083412 -6.332764 65.597362 -0.000000 -0.000002 -0.000006 0.622156 6.773490 -5.159534 1.887352 -4.767020 43.179862 0.000001 0.000003 -0.000000 -1.131949 4.266795 13.029849 0.409719 -2.355825 19.729444 0.000001 -0.000002 -0.000001 -0.719374 -0.384312 28.142261 0.000007 0.000011 0.000034 0.000002 0.000004 0.000001 -0.000001 -0.000001 0.000001 -0.000000 0.000001 0.000001 -0.000000 0.000000 -0.000000 -0.000000 0.000001 0.000001 -0.000000 0.000001 0.000001 -0.000000 0.000001 0.000001 -0.000000 0.000000 -0.000000 -0.000000 0.000001 0.000001 -0.000000 0.000001 0.000001 -0.000000 0.000001 0.000001 -0.000000 0.000000 -0.000000 0.000001 -0.000000 -0.000000 0.000001 -0.000000 -0.000000 0.000001 -0.000000 -0.000000 
43.138008 58.551453 -21.048191 17.301402 -5.112918 714.383310 0.000000 0.000000 -0.000000 -70.676796 1.169483 21.799765 67.801533 7.118480 -7.031442 -14.022661 8.188103 -0.367080 0.000000 0.000000 0.000000 0.000001 0.000000 0.000002 -2.590587 -11.443233 -2.757874 49.982716 -16.711513 -7.559832 -15.517365 -20.752722 14.123130 -0.000000 0.000002 -0.000000 0.000002 -0.000001 -0.000001 36.499035 -1.823971 -8.947182 3.203187 0.198377 1.111125 3.193083 0.230345 1.099230 -10.600845 -0.361715 -1.941253 -25.401468 -3.698650 -2.850395 -0.000001 0.000000 0.000001 -0.000001 0.000000 0.000001 -0.000001 0.000000 0.000001 -0.000001 0.000000 0.000001 -0.000000 -0.000000 0.000001 -0.000001 0.000000 0.000001 -0.000000 -0.000000 0.000001 -0.000001 0.000000 0.000001 -0.000001 0.000000 0.000001 -0.064966 1.578010 3.152919 -19.174945 24.361914 -27.926275 -0.000059 -79.166919 -0.000052 21.742787 19.912887 24.059557 3.300129 12.418653 8.222863 1.008033 -0.217198 -0.718185 0.000002 -0.000000 -0.000001 4.214795 -15.938726 14.998013 3.065108 5.730327 -56.255456 0.000001 0.000001 0.000000 1.006706 -12.867779 3.880718 1.355406 4.107159 -36.513665 0.000002 -0.000004 -0.000000 -1.397073 -9.004264 -9.001285 0.249863 1.841594 -15.451978 0.000002 -0.000003 0.000000 0.061047 1.327407 -18.765381 -0.017897 -4.036236 -0.660491 0.000002 0.000002 0.000001 -0.000002 0.000003 0.000002 -0.017772 -1.281124 -4.036779 149.113384 185.575516 -167.091849 0.000010 50.080153 -0.000002 -19.793507 12.357557 -14.829768 -13.267543 13.341883 -12.514655 15.746274 -41.084985 -3.297736 0.000001 -0.000003 -0.000001 2.814783 8.183774 -22.162058 4.115545 -6.347147 65.888212 -0.000000 0.000000 -0.000002 0.741414 6.628424 -6.461713 1.897022 -4.777259 43.296077 0.000001 -0.000001 0.000003 -1.020982 4.235017 12.021047 0.410785 -2.358792 19.755480 -0.000001 -0.000000 -0.000001 -0.697549 -0.328830 27.345140 0.000000 0.000004 0.000061 -0.000000 -0.000000 -0.000001 0.000003 0.000004 0.000001 0.000002 -0.000000 -0.000001 0.000002 -0.000000 -0.000000 0.000002 -0.000000 -0.000001 0.000002 -0.000000 -0.000001 0.000002 -0.000000 -0.000001 0.000002 -0.000000 -0.000000 0.000002 -0.000000 -0.000001 0.000002 -0.000000 -0.000001 0.000002 -0.000000 -0.000001 0.000002 -0.000000 -0.000000 0.000000 0.000000 -0.000000 0.000000 0.000000 -0.000000 0.000000 0.000000 -0.000000 
43.741936 58.925438 -21.616245 17.413769 -6.544651 715.152607 0.000000 -0.000000 0.000000 -70.004555 1.645974 21.569483 66.222113 6.870465 -7.645719 -13.371335 9.989278 0.400658 -0.000000 0.000002 0.000000 -0.000002 0.000000 -0.000001 1.479825 -11.412895 -1.182060 46.296750 -15.930860 -6.728478 -13.992799 -18.850062 16.499514 0.000001 0.000002 -0.000003 -0.000001 0.000000 -0.000001 35.617107 -0.810396 -10.169371 3.102298 0.410909 0.463500 3.088639 0.399148 0.434619 -10.460209 -0.510507 -1.817426 -24.881058 -4.351915 -2.622945 -0.000000 0.000001 0.000001 -0.000000 0.000001 0.000001 -0.000000 0.000001 0.000001 -0.000000 0.000001 0.000003 0.000002 0.000000 0.000001 -0.000000 0.000001 0.000003 0.000002 0.000000 0.000001 -0.000000 0.000001 0.000001 -0.000000 0.000001 0.000001 -0.090137 1.713341 3.358267 -16.735191 26.258220 -29.749569 0.000063 -77.279725 0.000071 21.168184 16.678137 23.120226 3.223312 12.405564 8.352248 1.171321 -0.386805 -0.336144 -0.000003 -0.000003 0.000002 3.171716 -11.670043 16.036823 3.435170 5.959728 -59.887850 -0.000000 -0.000004 -0.000004 0.764253 -9.819705 4.058094 1.547608 4.354144 -39.118700 0.000003 -0.000000 -0.000001 -1.318738 -7.310455 -10.035991 0.303196 2.024561 -17.033032 -0.000002 -0.000000 -0.000003 0.225483 1.872630 -20.940745 -0.017950 -4.040803 -0.622525 -0.000000 0.000000 0.000003 -0.000001 -0.000004 0.000002 -0.038184 -1.352650 -4.346498 147.092468 180.964906 -169.251978 -0.000018 48.885050 0.000011 -18.426939 14.080528 -13.748974 -13.525650 12.937311 -15.007821 14.406595 -36.388208 -2.721932 0.000001 0.000002 0.000001 2.795213 7.831801 -23.384657 4.114962 -6.346897 65.882898 0.000000 -0.000002 0.000003 0.814600 6.378998 -7.540851 1.891397 -4.771305 43.228465 0.000001 -0.000003 0.000006 -0.905250 4.118201 11.081085 0.408460 -2.352309 19.698727 -0.000001 0.000001 -0.000003 -0.655701 -0.308714 26.499669 -0.000003 0.000000 -0.000008 0.000002 0.000000 0.000001 -0.000001 -0.000005 0.000002 -0.000002 -0.000000 -0.000000 -0.000000 -0.000000 -0.000000 -0.000002 -0.000000 -0.000001 -0.000002 -0.000000 -0.000001 -0.000002 -0.000000 -0.000000 -0.000000 -0.000000 -0.000000 -0.000002 -0.000000 -0.000001 -0.000002 -0.000000 -0.000001 -0.000002 -0.000000 -0.000000 -0.000000 -0.000000 -0.000000 0.000000 -0.000000 0.000000 0.000000 -0.000000 0.000000 0.000000 -0.000000 0.000000 
44.300037 59.290344 -22.233702 17.619880 -7.955430 715.948898 -0.000001 0.000001 -0.000000 -69.410513 2.027648 21.299132 64.493597 6.671098 -8.226601 -12.563009 11.818146 1.093746 0.000000 0.000000 0.000000 0.000001 0.000001 0.000001 5.464233 -11.127831 0.329542 42.086184 -14.910419 -5.950229 -11.575535 -16.439435 18.974155 -0.000000 -0.000002 -0.000001 -0.000001 -0.000001 0.000001 34.604972 0.312665 -11.284557 3.020518 0.627744 -0.197871 3.005870 0.573893 -0.244530 -10.288289 -0.657664 -1.705415 -24.341503 -5.005092 -2.402625 0.000002 0.000000 0.000001 0.000002 0.000000 0.000001 0.000002 0.000000 0.000001 0.000002 0.000000 0.000001 0.000002 -0.000001 0.000000 0.000002 0.000000 0.000001 0.000002 -0.000001 0.000000 0.000002 0.000000 0.000001 0.000002 0.000000 0.000001 -0.103289 1.737705 3.579329 -13.950978 28.085748 -31.729818 -0.000009 -75.802587 0.000008 19.977702 12.451145 22.902280 3.128225 12.344138 8.469756 1.295419 -0.491946 -0.133274 -0.000004 -0.000001 -0.000003 2.327531 -8.788943 16.270977 3.698104 6.103872 -62.389844 0.000005 -0.000001 -0.000000 0.517663 -7.684725 3.572675 1.690848 4.524045 -40.969011 -0.000001 -0.000001 -0.000003 -1.317520 -6.088520 -11.508990 0.346156 2.159700 -18.209607 -0.000004 0.000003 -0.000001 0.393691 2.345669 -23.342615 -0.018047 -4.049868 -0.547530 0.000002 0.000004 -0.000000 0.000001 -0.000002 -0.000003 -0.053442 -1.346304 -4.684764 145.443920 176.423335 -171.083521 0.000002 47.935268 -0.000000 -16.712278 15.308537 -12.732606 -13.646752 12.018265 -17.311582 12.612656 -30.503618 -2.049841 -0.000000 0.000001 0.000002 2.676483 7.399324 -24.154653 4.072172 -6.327694 65.495299 -0.000000 -0.000001 -0.000000 0.833915 6.021715 -8.333761 1.866128 -4.744393 42.923760 0.000002 0.000002 -0.000005 -0.789134 3.905391 10.244395 0.401810 -2.333678 19.536276 0.000001 0.000001 0.000001 -0.592027 -0.333979 25.618042 0.000001 0.000006 -0.000005 -0.000000 0.000001 -0.000004 -0.000000 0.000001 -0.000003 0.000002 -0.000000 -0.000000 0.000002 0.000000 0.000000 0.000002 -0.000000 -0.000000 0.000002 -0.000000 -0.000000 0.000002 -0.000000 -0.000000 0.000002 0.000000 0.000000 0.000002 -0.000000 -0.000000 0.000002 -0.000000 -0.000000 0.000002 -0.000000 -0.000000 0.000002 0.000000 0.000000 -0.000001 0.000001 -0.000000 -0.000001 0.000001 -0.000000 -0.000001 0.000001 -0.000000 
